<svg width="165" height="164" viewBox="0 0 165 164" fill="none" xmlns="http://www.w3.org/2000/svg">
<path d="M82.5 164C128.064 164 165 127.287 165 82C165 36.7127 128.064 0 82.5 0C36.9365 0 0 36.7127 0 82C0 127.287 36.9365 164 82.5 164Z" fill="#FF0000"/>
<path d="M119.548 83.3478L132.161 61.7536L126.192 51.6087H100.951L115.617 26.5942C111.614 24.2857 107.371 22.4101 102.961 21L83 54.913L89.0278 65.1449H114.268L101.655 86.7536L107.624 97H146.225C147.31 92.5252 147.905 87.9482 148 83.3478H119.548Z" fill="white"/>
<path d="M76.5446 135.97H88.5139L101.112 114.215L114.82 137.942C118.825 135.64 122.573 132.919 126 129.823L107.001 97H95.0904L82.4927 118.77L69.9242 97.0584H57.9988L39 129.882C42.422 132.984 46.1706 135.706 50.1801 138L63.9031 114.259L76.5446 135.97Z" fill="white"/>
<path d="M64.0705 86.7422L51.2669 65.1706H76.9038L83 54.9562L62.7737 21C58.2918 22.4077 53.9792 24.2801 49.9106 26.5846L64.8157 51.5562H39.1341L33.0528 61.6838L45.8713 83.2699H17C17.0892 87.8964 17.6938 92.4999 18.8035 97H58.0041L64.0705 86.7422Z" fill="white"/>
</svg>
