<?xml version="1.0" encoding="utf-8"?>
<!-- Generator: Adobe Illustrator 27.8.0, SVG Export Plug-In . SVG Version: 6.00 Build 0)  -->
<svg version="1.1" id="Layer_1" xmlns="http://www.w3.org/2000/svg" xmlns:xlink="http://www.w3.org/1999/xlink" x="0px" y="0px"
	 viewBox="0 0 681.9 227.3" style="enable-background:new 0 0 681.9 227.3;" xml:space="preserve">
<style type="text/css">
	.st0{clip-path:url(#SVGID_00000011012127993644946430000012473051006936528048_);}
	.st1{fill:#FF0000;}
	.st2{fill:#FFFFFF;}
</style>
<g>
	<defs>
		<rect id="SVGID_1_" width="681.9" height="227.3"/>
	</defs>
	<clipPath id="SVGID_00000148662779373991991060000002642372859478912163_">
		<use xlink:href="#SVGID_1_"  style="overflow:visible;"/>
	</clipPath>
	<g style="clip-path:url(#SVGID_00000148662779373991991060000002642372859478912163_);">
		<path d="M254.6,137.2l-15-29v45.1h-16.9V74h16.9l22.5,44.5L284.7,74h16.8v79.4h-16.8v-45.1l-15.2,29L254.6,137.2z"/>
		<path d="M357.5,74l31,79.4h-17.4l-6.3-15.6h-30.7l-6.2,15.6h-17.4l31-79.4H357.5z M349.5,96.9l-9.9,25.9h19.7L349.5,96.9z"/>
		<path d="M418.7,120.5c-15.5-2.6-25-10.6-25-23.8c0-7.4,2.8-13.1,8.6-17.4s12.7-6.6,20.7-6.6c12.3,0,22.5,4.2,30.6,12.7l-11.4,11.9
			c-6-6.1-12.7-9.2-20.2-9.2c-7.1,0-11.7,3.2-11.7,7.8c0,4.2,3.7,7,11.3,8.4l7.8,1.2c17.8,2.8,26.7,11.1,26.7,24.8
			c0.1,6.9-3.1,13.5-8.7,17.6c-5.8,4.4-13.4,6.7-22.9,6.7c-13.9,0-25.8-6.2-33-15.2l11.5-11.7c5.9,7.6,13.4,11.4,22.4,11.4
			c8.6,0,13.8-3.6,13.8-8.6c0-4.2-3.7-7-11.1-8.4L418.7,120.5z"/>
		<path d="M491.6,120.5c-15.5-2.6-25-10.6-25-23.8c0-7.4,2.8-13.1,8.6-17.4s12.7-6.6,20.7-6.6c12.4,0,22.5,4.2,30.6,12.7l-11.3,11.9
			c-6-6.1-12.7-9.2-20.1-9.2c-7.1,0-11.7,3.2-11.7,7.8c0,4.2,3.7,7,11.3,8.4l7.8,1.2c17.8,2.8,26.7,11.1,26.7,24.8
			c0.2,6.9-3.1,13.5-8.7,17.6c-5.8,4.4-13.4,6.7-22.9,6.7c-13.9,0-25.8-6.2-33-15.2l11.5-11.7c5.9,7.6,13.4,11.4,22.4,11.4
			c8.6,0,13.8-3.6,13.8-8.6c0-4.2-3.7-7-11.1-8.4L491.6,120.5z"/>
		<path d="M580.1,74l31,79.4h-17.4l-6.3-15.6h-30.7l-6.2,15.6H533L564,74H580.1z M572.1,96.9l-9.8,25.9H582L572.1,96.9z"/>
		<circle class="st1" cx="126.9" cy="113.6" r="56.2"/>
		<path class="st2" d="M151.8,114.6l8.6-14.9l-4.1-7h-17.2l10-17.3c-2.7-1.6-5.6-2.9-8.6-3.9l-13.6,23.4l4.1,7.1h17.2l-8.6,14.9
			l4.1,7.1H170c0.7-3.1,1.1-6.2,1.2-9.4L151.8,114.6z"/>
		<path class="st2" d="M122.8,150.6h8.2l8.6-14.9L149,152c2.7-1.6,5.3-3.4,7.6-5.6l-13-22.5h-8.1l-8.6,14.9l-8.6-14.9h-8.2l-13,22.5
			c2.3,2.1,4.9,4,7.7,5.6l9.4-16.3L122.8,150.6z"/>
		<path class="st2" d="M114.2,116.9l-8.6-14.9h17.2l4.1-7.1l-13.6-23.5c-3,1-5.9,2.3-8.6,3.9l10,17.3H97.5l-4.1,7l8.6,14.9H82.6
			c0.1,3.2,0.5,6.4,1.2,9.5h26.3L114.2,116.9z"/>
	</g>
</g>
</svg>
