<svg width="46" height="19" viewBox="0 0 46 19" fill="none" xmlns="http://www.w3.org/2000/svg">
    <g clip-path="url(#clip0_8344_34678)">
    <path d="M25.7808 18.5143C25.6022 18.5479 25.4243 18.5774 25.2465 18.6035C25.2347 18.6035 25.2247 18.606 25.2129 18.6085C25.1886 18.611 25.1651 18.6161 25.1408 18.6178C25.0972 18.6253 25.0519 18.6295 25.0057 18.6371C24.9143 18.6464 24.8203 18.659 24.7289 18.6708C24.7239 18.6733 24.7214 18.6733 24.7197 18.6733C24.609 18.6851 24.4982 18.7002 24.39 18.7095C21.558 19.0039 19.6722 18.6228 19.5883 18.6035H19.5833C19.429 18.5791 19.2754 18.553 19.1211 18.5235C20.3467 18.3082 21.5991 18.06 22.8759 17.7773C23.8296 18.0499 24.8027 18.3015 25.7825 18.5143H25.7808Z" fill="#151A26"/>
    <path d="M21.9145 17.4927C20.9154 17.7031 19.9323 17.894 18.9667 18.0606C18.5666 18.1304 18.1723 18.196 17.7797 18.2566C14.6298 18.7496 11.6871 19.0003 9.01864 19.0003C7.2847 19.0003 5.63969 18.8943 4.13225 18.684H4.12973C3.38314 18.5485 2.2901 18.3197 1.44956 17.8797C0.541907 17.4061 0.0553651 16.7566 0 15.9499V15.9448C0.0025166 15.0413 0.522613 14.179 1.26417 13.3924C2.00573 12.605 2.97378 11.8874 3.8722 11.2741H3.87472C4.71023 10.7407 5.56503 10.2309 6.43493 9.74805C6.52889 9.8347 6.62536 9.91967 6.7235 10.0038C5.80159 10.4892 4.90988 11.0015 4.06011 11.5324C3.29171 12.0489 2.31191 12.7446 1.55526 13.5228C0.734007 14.3708 0.327157 15.1481 0.31038 15.9044C0.373295 16.6313 0.816216 17.1916 1.66599 17.6189C2.4562 18.0152 3.46032 18.2204 4.24717 18.3534C5.42494 18.5006 6.71092 18.5755 8.06904 18.5755C10.74 18.5755 13.5401 18.3029 16.3436 17.8436C16.2664 17.8166 16.1918 17.7931 16.1146 17.7662C15.8764 17.6888 15.6448 17.5971 15.4141 17.5003C15.1273 17.3792 14.8454 17.2446 14.5644 17.1066C14.0225 16.8408 13.5242 16.5051 13.0452 16.1383C12.9655 16.0777 12.8866 16.013 12.8262 15.928C12.6165 15.79 12.4454 15.6117 12.2843 15.4232C12.135 15.2491 11.9782 15.0758 11.8481 14.8823C11.7517 14.7376 11.6577 14.5929 11.583 14.4331C11.4916 14.2783 11.4094 14.1193 11.3423 13.9552C11.3306 13.9241 11.318 13.8972 11.323 13.8635C11.2341 13.7811 11.2198 13.6633 11.1854 13.559C11.1183 13.3537 11.0554 13.1484 11.0093 12.9381C11.0118 12.9407 11.0143 12.9407 11.0168 12.9432C12.2785 13.6532 13.6995 14.3557 15.3638 15.0834C17.2546 15.8876 19.5086 16.7566 21.9145 17.4936V17.4927Z" fill="#151A26"/>
    <path d="M44.3122 2.24492C43.5103 1.79316 42.4239 1.46506 41.0901 1.264C40.0256 1.12351 38.8772 1.05116 37.6801 1.05116C35.8623 1.05116 33.8943 1.21016 31.6311 1.54162C31.5833 1.44739 31.5346 1.35317 31.4818 1.26147C31.4507 1.20595 31.4163 1.1479 31.3853 1.09238C31.2049 0.787842 30.9952 0.505176 30.7083 0.283082C30.4676 0.0971622 30.1975 -0.0281865 29.8795 0.00546414C29.6413 0.0323847 29.4098 0.104734 29.1883 0.193908C28.7311 0.382351 28.3192 0.654922 27.9267 0.954413C27.529 1.25643 27.1465 1.57779 26.795 1.93954C26.7732 1.95888 26.7514 1.98328 26.7296 2.00515C26.6742 2.0632 26.6214 2.0775 26.5417 2.0489C26.5081 2.03712 26.4763 2.02703 26.4427 2.01777C26.2791 1.96225 26.1105 1.9143 25.9444 1.87055C25.6793 1.7982 25.4143 1.71828 25.1399 1.68968C25.1257 1.68043 25.1089 1.67033 25.0896 1.66528C24.6299 1.56181 24.1602 1.52058 23.6929 1.47936C23.4975 1.47179 23.3028 1.46254 23.1099 1.45497H21.636C21.4171 1.46674 21.1981 1.46674 20.9783 1.50124C20.699 1.49871 20.4222 1.53236 20.1495 1.58116C19.9256 1.61733 19.6991 1.64677 19.4826 1.7166C19.0632 1.80157 18.6522 1.9143 18.247 2.05226C18.1648 2.07919 18.117 2.06404 18.0591 2.006C17.9215 1.86635 17.7873 1.72081 17.6355 1.59546C17.2672 1.2884 16.9107 0.967873 16.5064 0.702033C16.1213 0.448812 15.7237 0.225876 15.2783 0.0837019C14.8253 -0.0609959 14.4235 -0.00294853 14.0552 0.303272C13.8413 0.479938 13.6769 0.691937 13.5208 0.916556C13.1232 1.49366 12.8783 2.1406 12.6711 2.8052C12.6157 2.98607 12.5654 3.16947 12.5243 3.3537C12.4857 3.51102 12.4546 3.6675 12.4278 3.82481C10.9656 3.53962 9.65366 3.39997 8.42053 3.39997C8.36013 3.39997 8.29806 3.39997 8.23766 3.4025C7.28135 3.42942 6.48695 3.56907 5.88213 3.81808C5.07262 4.15122 4.60118 4.68038 4.48038 5.38789V5.39041C4.38391 6.10044 4.64648 6.89712 5.26556 7.76194C5.58601 8.2137 6.00209 8.67976 6.50624 9.1576C6.62704 9.27369 6.75203 9.38979 6.88205 9.50336C6.98104 9.59254 7.0817 9.68003 7.18572 9.76668C7.2025 9.78098 7.21676 9.7936 7.23354 9.8079C7.35434 9.90717 7.47429 10.0039 7.59677 10.0981C8.60089 10.8906 9.70148 11.6292 10.9396 12.3443C11.0428 12.4049 11.1468 12.4629 11.2525 12.5227C12.4999 13.2276 13.9084 13.9208 15.5559 14.6435C17.6514 15.5319 20.1915 16.5027 22.8935 17.2834C23.2139 17.3776 23.5386 17.4668 23.8666 17.556C24.89 17.8285 25.9327 18.075 26.9754 18.2736C28.784 18.6193 30.6001 18.8263 32.3382 18.8263C32.4658 18.8263 32.5958 18.8237 32.7208 18.8237L32.7233 18.8212H32.7258C34.0672 18.7464 35.64 18.4973 35.8783 17.2346V17.2295C35.9915 16.2562 35.2592 15.2568 34.3901 14.3844C34.2651 14.259 34.1376 14.1328 34.0076 14.0151C34.1762 13.9495 34.3423 13.8847 34.5059 13.8191C34.7777 13.7131 35.0478 13.6037 35.3129 13.4926C37.5912 12.5462 39.5852 11.5241 41.403 10.3673C42.7033 9.51935 43.746 8.66714 44.5068 7.83597C45.5135 6.73223 46.0143 5.66466 45.9975 4.66271V4.66019C45.9497 3.65824 45.3809 2.84642 44.3114 2.24492H44.3122ZM11.9337 7.69548C11.8515 7.86962 11.7752 8.04545 11.7047 8.22716C11.5579 8.59648 11.4329 8.97336 11.3171 9.3553C11.2257 9.65226 11.1317 9.94671 11.0856 10.2563C11.0713 10.2975 11.0495 10.3362 11.042 10.3774C11.0202 10.5078 10.9984 10.6382 10.9816 10.7686C10.9547 10.9453 10.9355 11.1236 10.9262 11.302C10.011 10.7341 9.20907 10.1789 8.52036 9.64049C8.37607 9.53196 8.23598 9.41839 8.10092 9.30735C8.25947 9.22995 8.42137 9.15255 8.58243 9.07768C9.68302 8.55105 10.8197 8.05891 11.9807 7.59705C11.9639 7.6307 11.9496 7.66267 11.9329 7.69632L11.9337 7.69548ZM12.6107 6.42012C12.5092 6.57996 12.4152 6.74148 12.3288 6.90805C10.9514 7.48264 9.58068 8.11106 8.23766 8.79165C8.08079 8.86905 7.92728 8.94897 7.77293 9.02804C7.64039 8.91195 7.51036 8.79838 7.39041 8.68481C7.22179 8.52581 7.06493 8.37102 6.91813 8.21622C5.95763 7.20418 5.54071 6.3301 5.71603 5.68738C5.82173 5.29619 6.14973 4.98913 6.6866 4.77713C7.25283 4.55503 8.03717 4.44146 9.02284 4.44146C10.0085 4.44146 11.0672 4.54494 12.3196 4.75021C12.3103 4.91425 12.3103 5.0783 12.3221 5.24066C12.3271 5.29871 12.3338 5.35424 12.3414 5.41228C12.3825 5.7143 12.4253 6.01631 12.609 6.27206C12.6476 6.32253 12.6476 6.36123 12.6115 6.41928L12.6107 6.42012ZM14.5401 4.12599C14.4679 4.19329 14.4436 4.17226 14.4125 4.09486C14.3664 3.98129 14.3261 3.86772 14.2917 3.75162C14.2246 3.53205 14.1861 3.30743 14.181 3.06851C14.2003 2.70593 14.2582 2.34671 14.504 2.04974C14.8697 1.60976 15.3395 1.47936 15.8814 1.6249C16.3486 1.75025 16.7144 2.03544 17.0206 2.40476C17.086 2.48215 17.0566 2.50655 16.987 2.5402C16.5777 2.73621 16.1733 2.93644 15.7925 3.18545C15.4553 3.40502 15.1256 3.63216 14.8152 3.88791C14.7212 3.9653 14.6298 4.04522 14.5409 4.12683L14.5401 4.12599ZM19.9516 11.2961C19.8887 11.4122 19.8266 11.53 19.7637 11.6486C19.6412 11.7546 19.559 11.8926 19.4382 12.0036C19.038 12.3729 18.5783 12.6169 18.0364 12.7044C17.9979 12.7094 17.9593 12.7187 17.9232 12.7288C17.6724 12.7532 17.4224 12.7506 17.1741 12.7044C16.5072 12.5765 15.9577 12.2577 15.5391 11.7167C15.4116 11.5502 15.3126 11.3693 15.2095 11.1876C15.2019 11.1657 15.1952 11.1438 15.1851 11.1203C15.1633 11.0547 15.139 10.9874 15.118 10.9226C15.0702 10.7728 15.0316 10.6206 15.0098 10.4641C14.9519 10.0056 14.9956 9.55804 15.1759 9.1332C15.4838 8.40383 16.0064 7.88476 16.7555 7.62397C17.2706 7.44562 17.7982 7.433 18.3309 7.58023C18.7671 7.69884 19.1328 7.93019 19.4558 8.2423C19.8241 8.60489 20.0648 9.03898 20.1755 9.54374C20.2217 9.70274 20.2385 9.87015 20.241 10.0342C20.2527 10.4759 20.1613 10.9015 19.9516 11.2969V11.2961ZM22.5932 12.0642C22.4271 12.1895 22.3692 12.192 22.2031 12.0667C21.8776 11.8202 21.6226 11.5064 21.4087 11.1607C21.4833 11.1682 21.5119 11.095 21.5655 11.0664C21.8373 10.9217 22.1267 10.8586 22.4346 10.8687C22.6343 10.8763 22.8247 10.9024 23.0126 10.9655C23.1451 11.0118 23.2466 11.1077 23.3716 11.1632C23.1619 11.5064 22.9144 11.8177 22.594 12.0642H22.5932ZM29.3628 1.57022C29.5893 1.57274 29.8225 1.65939 30.0205 1.79989C29.5146 1.88654 28.9945 1.98076 28.4577 2.08255C28.2991 2.11368 28.1397 2.14817 27.9787 2.18182C28.3545 1.8125 28.7949 1.56349 29.3636 1.57106L29.3628 1.57022ZM25.5099 7.96805C25.7095 7.8183 25.936 7.69969 26.1843 7.61808C26.6927 7.45151 27.2128 7.43469 27.7379 7.57434C28.1766 7.69043 28.5449 7.9201 28.8653 8.23389C29.3108 8.6663 29.5641 9.19041 29.643 9.80622C29.6623 9.95596 29.6673 10.1032 29.6598 10.2479C29.6505 10.4245 29.6212 10.5978 29.5775 10.7669C28.1179 9.85669 26.613 9.03982 25.1249 8.31549C25.2406 8.1851 25.3706 8.069 25.5099 7.96805ZM34.1192 14.4862C34.4128 14.7714 34.7047 15.0826 34.9496 15.4065C35.4504 16.0661 35.6694 16.6407 35.6191 17.1673C35.5159 17.6628 35.1619 18.0128 34.5378 18.2374C33.9505 18.4477 33.2325 18.5058 32.6688 18.5344H32.6084C31.1345 18.5344 29.5356 18.3535 27.8738 18.0321C28.1968 17.9354 28.5147 17.8294 28.8326 17.7133C28.9551 17.667 29.0784 17.6216 29.2009 17.5736C29.7378 17.3633 30.2604 17.1151 30.757 16.8173C31.1831 16.5641 31.595 16.2856 31.9658 15.9525C32.0505 15.8776 32.1394 15.8028 32.2208 15.7254C32.4347 15.515 32.6277 15.2879 32.813 15.054C32.8441 15.0153 32.8734 14.9766 32.9045 14.9379C31.715 15.3628 30.4382 15.7809 29.0491 16.199C27.9627 16.5128 26.889 16.8056 25.8245 17.0781C25.499 17.158 25.1769 17.2396 24.8539 17.317C24.5435 17.2321 24.2281 17.1404 23.9144 17.0462C24.2273 16.9738 24.5427 16.8964 24.8581 16.819C26.1919 16.4926 27.5458 16.1309 28.9157 15.7346C30.4785 15.2635 31.902 14.7907 33.2123 14.3095C33.1595 14.2616 33.1041 14.2153 33.0538 14.1699C31.8953 13.2352 30.6043 12.3561 29.2319 11.5426C29.0541 11.8227 28.8301 12.0667 28.5457 12.2602C28.1649 12.521 27.7488 12.6901 27.2816 12.7288C27.144 12.7406 27.0073 12.7481 26.8697 12.7456C26.6893 12.7145 26.5065 12.6976 26.3278 12.6438C25.7766 12.4798 25.3136 12.1828 24.9646 11.7184C24.9428 11.6898 24.926 11.6578 24.89 11.6486C24.8707 11.6149 24.8539 11.5788 24.8321 11.5468C24.5553 11.1026 24.4009 10.6265 24.4059 10.0998C24.4059 9.9038 24.442 9.7162 24.4613 9.52523C24.4999 9.39484 24.5435 9.26444 24.5939 9.14162C24.6542 8.99187 24.7264 8.8497 24.8128 8.71425C26.4142 9.43858 27.9845 10.2403 29.4609 11.1169C30.8627 11.9481 32.1797 12.844 33.3625 13.798C33.4783 13.8973 33.6007 14.0058 33.7257 14.1194C33.8532 14.2355 33.9858 14.3583 34.1183 14.4862H34.1192ZM44.2577 5.47285C44.2485 5.5166 44.2384 5.5595 44.2241 5.60577C44.0119 6.37637 43.3383 7.24793 42.2327 8.175C40.6069 9.53701 38.0492 11.0059 34.8347 12.4234C34.4975 12.5681 34.1536 12.7111 33.7996 12.8558C33.8281 12.701 33.8499 12.5471 33.8499 12.3897C33.8499 12.3628 33.8524 12.3393 33.8549 12.3123C33.8667 12.1189 33.886 11.9237 33.8742 11.7302C33.8834 11.4257 33.86 11.1236 33.8239 10.8267C33.7996 10.6332 33.7803 10.438 33.7081 10.2546C33.5831 9.59254 33.3633 8.9599 33.1301 8.33484C32.8776 7.66604 32.5597 7.02583 32.1789 6.4176C32.1478 6.36712 32.1453 6.3259 32.1814 6.27795C32.2728 6.15512 32.3232 6.01463 32.3617 5.86993C32.4632 5.49304 32.4825 5.10943 32.4632 4.71992C32.4439 4.32621 32.3936 3.93754 32.3089 3.55308C32.2779 3.40839 32.2435 3.26285 32.2057 3.12067C31.6781 3.1762 31.1412 3.23929 30.5943 3.30912C30.5632 3.58169 30.4886 3.85257 30.3728 4.11337C30.3535 4.15964 30.3367 4.19749 30.2763 4.14449C30.0062 3.90305 29.7252 3.67843 29.4307 3.47316C29.2336 3.33099 29.0306 3.19807 28.8217 3.0744C29.419 2.98271 30.0087 2.89774 30.5892 2.82118C31.09 2.75809 31.5841 2.69836 32.0707 2.64452C32.9255 2.55282 33.7568 2.48047 34.5537 2.42747C35.3271 2.38625 36.0712 2.36437 36.7641 2.36437H36.7666C39.0618 2.36437 40.8846 2.58647 42.1807 3.02645C43.0623 3.32594 43.6738 3.71208 44.0035 4.18319C44.0253 4.2118 44.0446 4.24124 44.0614 4.26984C44.1604 4.42884 44.23 4.59794 44.2661 4.77713C44.3122 4.9967 44.3097 5.22889 44.2585 5.47285H44.2577Z" fill="#151A26"/>
    </g>
    <defs>
    <clipPath id="clip0_8344_34678">
    <rect width="46" height="19" fill="white"/>
    </clipPath>
    </defs>
    </svg>
    